Normalized EMG Linear Envelopes
nRows=54
nColumns=17

endheader
time	        VM	        VL	        RF	       GRA	        TA	   ADDLONG	   SEMIMEM	      BFLH	        GM	        GL	       TFL	   GLUTMAX	   GLUTMED	      PIRI	    OBTINT	        QF	
1.685	  0.042968	  0.038498	  0.143760	  0.067728	  0.201518	  0.023200	  0.015046	  0.020777	  0.014678	  0.015844	  0.100649	  0.017337	  0.076669	  0.324800	  0.608313	  0.219345	
1.6855	  0.042477	  0.038503	  0.143142	  0.066295	  0.200260	  0.022822	  0.014522	  0.020181	  0.014494	  0.015650	  0.099025	  0.017243	  0.076347	  0.324524	  0.611879	  0.221189	
1.686	  0.041986	  0.038507	  0.142541	  0.064881	  0.199002	  0.022448	  0.014009	  0.019593	  0.014309	  0.015457	  0.097411	  0.017151	  0.076028	  0.324223	  0.615462	  0.223036	
1.6865	  0.041494	  0.038510	  0.141957	  0.063485	  0.197743	  0.022078	  0.013507	  0.019012	  0.014124	  0.015264	  0.095806	  0.017061	  0.075714	  0.323895	  0.619057	  0.224885	
1.687	  0.041001	  0.038513	  0.141388	  0.062107	  0.196481	  0.021711	  0.013016	  0.018439	  0.013938	  0.015072	  0.094212	  0.016974	  0.075403	  0.323541	  0.622659	  0.226736	
1.6875	  0.040508	  0.038516	  0.140835	  0.060749	  0.195218	  0.021347	  0.012537	  0.017873	  0.013750	  0.014881	  0.092627	  0.016890	  0.075097	  0.323160	  0.626264	  0.228589	
1.688	  0.040015	  0.038517	  0.140297	  0.059410	  0.193953	  0.020987	  0.012071	  0.017317	  0.013563	  0.014690	  0.091053	  0.016808	  0.074794	  0.322752	  0.629867	  0.230444	
1.6885	  0.039522	  0.038517	  0.139772	  0.058091	  0.192686	  0.020631	  0.011617	  0.016768	  0.013374	  0.014500	  0.089490	  0.016728	  0.074495	  0.322317	  0.633464	  0.232301	
1.689	  0.039028	  0.038516	  0.139261	  0.056791	  0.191416	  0.020279	  0.011175	  0.016229	  0.013184	  0.014312	  0.087938	  0.016652	  0.074200	  0.321854	  0.637051	  0.234159	
1.6895	  0.038535	  0.038513	  0.138762	  0.055511	  0.190143	  0.019931	  0.010748	  0.015699	  0.012994	  0.014124	  0.086397	  0.016578	  0.073909	  0.321364	  0.640623	  0.236018	
1.69	  0.038043	  0.038508	  0.138276	  0.054251	  0.188868	  0.019587	  0.010333	  0.015178	  0.012803	  0.013937	  0.084868	  0.016508	  0.073621	  0.320845	  0.644178	  0.237879	
1.6905	  0.037550	  0.038502	  0.137800	  0.053011	  0.187589	  0.019247	  0.009933	  0.014667	  0.012611	  0.013751	  0.083351	  0.016440	  0.073337	  0.320299	  0.647711	  0.239740	
1.691	  0.037058	  0.038493	  0.137336	  0.051792	  0.186308	  0.018911	  0.009547	  0.014166	  0.012419	  0.013566	  0.081846	  0.016376	  0.073057	  0.319725	  0.651220	  0.241601	
1.6915	  0.036567	  0.038483	  0.136880	  0.050593	  0.185024	  0.018579	  0.009176	  0.013675	  0.012226	  0.013382	  0.080353	  0.016315	  0.072780	  0.319122	  0.654698	  0.243463	
1.692	  0.036077	  0.038470	  0.136434	  0.049415	  0.183738	  0.018251	  0.008820	  0.013195	  0.012032	  0.013200	  0.078872	  0.016258	  0.072506	  0.318492	  0.658143	  0.245323	
1.6925	  0.035588	  0.038455	  0.135996	  0.048258	  0.182449	  0.017928	  0.008480	  0.012726	  0.011837	  0.013018	  0.077404	  0.016204	  0.072236	  0.317835	  0.661551	  0.247182	
1.693	  0.035100	  0.038438	  0.135565	  0.047122	  0.181159	  0.017609	  0.008155	  0.012268	  0.011641	  0.012838	  0.075948	  0.016154	  0.071969	  0.317149	  0.664916	  0.249039	
1.6935	  0.034614	  0.038418	  0.135141	  0.046008	  0.179867	  0.017295	  0.007846	  0.011821	  0.011445	  0.012659	  0.074505	  0.016108	  0.071706	  0.316438	  0.668235	  0.250893	
1.694	  0.034129	  0.038395	  0.134722	  0.044914	  0.178574	  0.016984	  0.007554	  0.011386	  0.011248	  0.012481	  0.073075	  0.016065	  0.071446	  0.315700	  0.671504	  0.252744	
1.6945	  0.033645	  0.038369	  0.134308	  0.043842	  0.177280	  0.016679	  0.007279	  0.010962	  0.011050	  0.012304	  0.071657	  0.016027	  0.071190	  0.314936	  0.674717	  0.254590	
1.695	  0.033163	  0.038340	  0.133899	  0.042792	  0.175986	  0.016378	  0.007022	  0.010551	  0.010852	  0.012129	  0.070253	  0.015993	  0.070937	  0.314148	  0.677871	  0.256432	
1.6955	  0.032684	  0.038307	  0.133493	  0.041763	  0.174691	  0.016081	  0.006781	  0.010153	  0.010653	  0.011955	  0.068862	  0.015963	  0.070687	  0.313335	  0.680962	  0.258269	
1.696	  0.032206	  0.038272	  0.133089	  0.040756	  0.173397	  0.015789	  0.006559	  0.009767	  0.010453	  0.011783	  0.067484	  0.015937	  0.070442	  0.312499	  0.683986	  0.260100	
1.6965	  0.031730	  0.038232	  0.132687	  0.039770	  0.172104	  0.015502	  0.006356	  0.009394	  0.010253	  0.011611	  0.066120	  0.015916	  0.070200	  0.311639	  0.686937	  0.261926	
1.697	  0.031256	  0.038189	  0.132286	  0.038807	  0.170811	  0.015219	  0.006171	  0.009034	  0.010053	  0.011442	  0.064769	  0.015899	  0.069961	  0.310757	  0.689813	  0.263745	
1.6975	  0.030785	  0.038143	  0.131885	  0.037865	  0.169520	  0.014942	  0.006006	  0.008688	  0.009851	  0.011273	  0.063432	  0.015887	  0.069727	  0.309853	  0.692607	  0.265558	
1.698	  0.030317	  0.038092	  0.131483	  0.036945	  0.168232	  0.014668	  0.005860	  0.008355	  0.009650	  0.011106	  0.062109	  0.015880	  0.069496	  0.308927	  0.695317	  0.267365	
1.6985	  0.029851	  0.038037	  0.131079	  0.036047	  0.166946	  0.014400	  0.005734	  0.008037	  0.009448	  0.010941	  0.060800	  0.015877	  0.069268	  0.307980	  0.697937	  0.269164	
1.699	  0.029387	  0.037978	  0.130673	  0.035172	  0.165663	  0.014136	  0.005628	  0.007733	  0.009246	  0.010778	  0.059505	  0.015880	  0.069045	  0.307012	  0.700462	  0.270956	
1.6995	  0.028927	  0.037915	  0.130264	  0.034318	  0.164385	  0.013877	  0.005543	  0.007443	  0.009043	  0.010616	  0.058225	  0.015888	  0.068825	  0.306024	  0.702888	  0.272741	
1.7	  0.028470	  0.037847	  0.129851	  0.033486	  0.163110	  0.013623	  0.005480	  0.007169	  0.008840	  0.010455	  0.056960	  0.015901	  0.068609	  0.305016	  0.705210	  0.274517	
1.7005	  0.028016	  0.037774	  0.129435	  0.032676	  0.161840	  0.013373	  0.005437	  0.006910	  0.008637	  0.010297	  0.055710	  0.015919	  0.068396	  0.303989	  0.707425	  0.276285	
1.701	  0.027565	  0.037696	  0.129014	  0.031889	  0.160575	  0.013129	  0.005417	  0.006666	  0.008434	  0.010140	  0.054475	  0.015942	  0.068188	  0.302944	  0.709528	  0.278043	
1.7015	  0.027118	  0.037613	  0.128587	  0.031124	  0.159316	  0.012889	  0.005419	  0.006438	  0.008231	  0.009985	  0.053255	  0.015971	  0.067983	  0.301883	  0.711516	  0.279792	
1.702	  0.026675	  0.037525	  0.128155	  0.030381	  0.158062	  0.012654	  0.005443	  0.006226	  0.008027	  0.009832	  0.052050	  0.016005	  0.067782	  0.300804	  0.713385	  0.281531	
1.7025	  0.026235	  0.037432	  0.127717	  0.029660	  0.156814	  0.012424	  0.005490	  0.006031	  0.007824	  0.009682	  0.050861	  0.016045	  0.067584	  0.299711	  0.715133	  0.283259	
1.703	  0.025798	  0.037333	  0.127273	  0.028961	  0.155572	  0.012198	  0.005561	  0.005853	  0.007621	  0.009533	  0.049687	  0.016091	  0.067391	  0.298603	  0.716757	  0.284977	
1.7035	  0.025366	  0.037228	  0.126822	  0.028284	  0.154337	  0.011978	  0.005656	  0.005691	  0.007418	  0.009386	  0.048529	  0.016142	  0.067201	  0.297482	  0.718255	  0.286682	
1.704	  0.024938	  0.037118	  0.126363	  0.027630	  0.153109	  0.011762	  0.005775	  0.005547	  0.007216	  0.009241	  0.047387	  0.016199	  0.067016	  0.296348	  0.719626	  0.288376	
1.7045	  0.024514	  0.037002	  0.125898	  0.026998	  0.151888	  0.011551	  0.005918	  0.005420	  0.007013	  0.009098	  0.046261	  0.016262	  0.066834	  0.295202	  0.720870	  0.290058	
1.705	  0.024094	  0.036879	  0.125424	  0.026388	  0.150675	  0.011345	  0.006087	  0.005311	  0.006811	  0.008957	  0.045151	  0.016331	  0.066656	  0.294046	  0.721985	  0.291726	
1.7055	  0.023678	  0.036751	  0.124943	  0.025801	  0.149469	  0.011144	  0.006281	  0.005221	  0.006610	  0.008819	  0.044057	  0.016406	  0.066482	  0.292879	  0.722971	  0.293381	
1.706	  0.023268	  0.036617	  0.124454	  0.025236	  0.148270	  0.010948	  0.006500	  0.005149	  0.006409	  0.008683	  0.042978	  0.016487	  0.066313	  0.291704	  0.723828	  0.295023	
1.7065	  0.022861	  0.036477	  0.123956	  0.024693	  0.147080	  0.010757	  0.006746	  0.005095	  0.006208	  0.008549	  0.041916	  0.016574	  0.066147	  0.290519	  0.724558	  0.296650	
1.707	  0.022460	  0.036330	  0.123449	  0.024173	  0.145898	  0.010571	  0.007018	  0.005061	  0.006009	  0.008417	  0.040870	  0.016667	  0.065986	  0.289326	  0.725160	  0.298263	
1.7075	  0.022063	  0.036177	  0.122932	  0.023675	  0.144724	  0.010390	  0.007317	  0.005046	  0.005810	  0.008288	  0.039840	  0.016767	  0.065829	  0.288126	  0.725635	  0.299861	
1.708	  0.021671	  0.036018	  0.122406	  0.023199	  0.143558	  0.010214	  0.007644	  0.005051	  0.005611	  0.008161	  0.038826	  0.016873	  0.065677	  0.286919	  0.725984	  0.301445	
1.7085	  0.021284	  0.035853	  0.121870	  0.022745	  0.142401	  0.010043	  0.007999	  0.005076	  0.005414	  0.008036	  0.037829	  0.016986	  0.065530	  0.285706	  0.726206	  0.303013	
1.709	  0.020902	  0.035681	  0.121323	  0.022313	  0.141252	  0.009877	  0.008381	  0.005121	  0.005218	  0.007914	  0.036848	  0.017105	  0.065387	  0.284488	  0.726303	  0.304565	
1.7095	  0.020525	  0.035502	  0.120765	  0.021904	  0.140111	  0.009717	  0.008792	  0.005186	  0.005022	  0.007795	  0.035883	  0.017231	  0.065249	  0.283266	  0.726275	  0.306101	
1.71	  0.020154	  0.035317	  0.120195	  0.021517	  0.138979	  0.009561	  0.009232	  0.005272	  0.004828	  0.007678	  0.034935	  0.017363	  0.065117	  0.282041	  0.726124	  0.307620	
1.7105	  0.019787	  0.035126	  0.119614	  0.021152	  0.137855	  0.009411	  0.009702	  0.005380	  0.004635	  0.007563	  0.034003	  0.017502	  0.064989	  0.280814	  0.725850	  0.309122	
1.711	  0.019426	  0.034929	  0.119020	  0.020810	  0.136739	  0.009266	  0.010201	  0.005509	  0.004444	  0.007451	  0.033087	  0.017648	  0.064868	  0.279586	  0.725458	  0.310606	
1.7115	  0.019071	  0.034725	  0.118414	  0.020489	  0.135631	  0.009126	  0.010731	  0.005660	  0.004253	  0.007342	  0.032187	  0.017801	  0.064752	  0.278358	  0.724950	  0.312072	
